<svg width="175" height="90" viewBox="0 0 175 90" fill="none" xmlns="http://www.w3.org/2000/svg">
<path d="M166.157 0H8.69995C3.8951 0 0 3.90828 0 8.72939V81.2706C0 86.0917 3.8951 90 8.69995 90H166.157C170.962 90 174.857 86.0917 174.857 81.2706V8.72939C174.857 3.90828 170.962 0 166.157 0Z" fill="#001B71"/>
<path d="M24.7104 32.7796C24.7104 32.7796 29.685 23.7861 38.7952 21.6226C47.9053 19.4592 53.2908 22.3662 56.4226 24.1846L57.1636 23.1925C57.1636 23.1925 67.7896 29.2263 68.2011 42.0366C68.2011 42.0366 69.3549 52.6157 61.4473 60.2194L60.56 59.4648C60.56 59.4648 58.1185 62.6966 51.4167 65.0941C51.4167 65.0941 45.079 67.1271 38.9486 65.3028L38.5332 66.3973C38.5332 66.3973 24.8176 63.5275 21.4421 47.9973C21.4421 47.9973 19.622 39.9697 23.8316 32.2552L24.7104 32.7796ZM24.5693 48.9548C28.2972 61.5356 39.4484 63.7147 39.4484 63.7147L39.1761 64.5874C52.7681 67.917 59.9971 58.8615 59.9971 58.8615L59.2905 58.3162C59.2905 58.3162 66.4668 51.8246 65.3247 41.0779C64.1826 30.3312 55.7043 25.6945 55.7043 25.6945L56.1398 24.8218C48.3486 19.7768 39.6123 22.1477 39.6123 22.1477C29.6954 24.5466 25.4768 33.1122 25.4768 33.1122L26.2919 33.7123C22.2357 41.5377 24.5706 48.9568 24.5706 48.9568L24.5693 48.9548Z" fill="url(#paint0_linear)"/>
<path d="M67.23 43.624C67.23 56.1911 57.0766 66.3789 44.5518 66.3789C32.0271 66.3789 21.8737 56.1911 21.8737 43.624C21.8737 31.0569 32.0271 20.8691 44.5518 20.8691C57.0766 20.8691 67.23 31.0569 67.23 43.624ZM44.6741 21.7823C32.6746 21.7823 22.9469 31.5428 22.9469 43.5829C22.9469 55.623 32.6739 65.3836 44.6734 65.3836C56.6729 65.3836 66.4005 55.623 66.4005 43.5829C66.4005 31.5428 56.6729 21.7823 44.6734 21.7823H44.6741Z" fill="url(#paint1_linear)"/>
<path d="M64.1251 43.5664C64.1251 54.3549 55.4089 63.1006 44.6568 63.1006C33.9047 63.1006 25.1885 54.3549 25.1885 43.5664C25.1885 32.7779 33.9047 24.0322 44.6574 24.0322C55.4102 24.0322 64.1251 32.7779 64.1251 43.5664ZM44.6249 28.9891C36.5646 28.9891 30.0318 35.5447 30.0318 43.6316C30.0318 51.7186 36.5652 58.2741 44.6249 58.2741C52.6846 58.2741 59.218 51.7186 59.218 43.6316C59.218 35.5447 52.6846 28.9891 44.6249 28.9891Z" fill="url(#paint2_linear)"/>
<path d="M68.6387 21.9083C68.6387 22.5691 68.4434 23.2151 68.0775 23.7646C67.7115 24.3141 67.1915 24.7424 66.583 24.9953C65.9745 25.2482 65.3049 25.3143 64.6589 25.1854C64.013 25.0565 63.4196 24.7382 62.9539 24.2709C62.4882 23.8036 62.171 23.2083 62.0425 22.5601C61.914 21.912 61.98 21.2401 62.232 20.6296C62.4841 20.019 62.9109 19.4972 63.4585 19.13C64.0061 18.7629 64.65 18.5669 65.3086 18.5669C66.1918 18.5669 67.0388 18.9189 67.6633 19.5456C68.2878 20.1722 68.6387 21.0221 68.6387 21.9083Z" fill="#E0BA24"/>
<path d="M58.4684 62.8398L59.4168 63.7784C59.4168 63.7784 55.1572 67.4178 48.3872 68.4281L48.2409 67.0584C48.2409 67.0584 54.0989 66.3338 58.4684 62.8398Z" fill="url(#paint3_linear)"/>
<path d="M32.845 22.8582L32 21.8238C32 21.8238 36.621 18.6599 43.4593 18.3774V19.7562C43.4593 19.7562 37.5597 19.8495 32.845 22.8582Z" fill="url(#paint4_linear)"/>
<path d="M79.2505 41.0982C79.2505 44.3528 75.7859 44.3939 75.5239 44.3939H73.8813V48.7292C73.8806 48.7465 73.8764 48.7635 73.869 48.7792C73.8617 48.7948 73.8513 48.8089 73.8384 48.8205C73.8256 48.8321 73.8106 48.841 73.7943 48.8467C73.778 48.8524 73.7607 48.8548 73.7435 48.8538H71.9488C71.9151 48.852 71.883 48.8386 71.8579 48.8159C71.8329 48.7933 71.8163 48.7627 71.811 48.7292V42.3446H75.5239C75.8002 42.3446 77.1529 42.3165 77.1529 41.0982C77.1529 39.8798 75.7722 39.81 75.5239 39.81H71.811V37.899C71.8163 37.8655 71.8329 37.8349 71.8579 37.8123C71.883 37.7896 71.9151 37.7762 71.9488 37.7744H75.5239C75.9659 37.7744 79.2505 37.8436 79.2505 41.0982Z" fill="url(#paint5_linear)"/>
<path d="M90.9279 48.8533H89.0227C88.996 48.8533 88.97 48.8454 88.9479 48.8305C88.9258 48.8157 88.9086 48.7945 88.8985 48.7698L86.7177 42.5932L84.5648 48.7698C84.5532 48.7964 84.5337 48.8188 84.5089 48.8338C84.4841 48.8487 84.4552 48.8556 84.4263 48.8533H82.5354C82.4113 48.8533 82.356 48.7698 82.3976 48.687L86.5799 37.86C86.6215 37.7491 86.8145 37.7491 86.8561 37.86L91.052 48.687C91.0936 48.7698 91.0241 48.8533 90.9279 48.8533Z" fill="url(#paint6_linear)"/>
<path d="M101.664 48.8533H99.691C99.6631 48.8509 99.6361 48.8422 99.6121 48.8277C99.5881 48.8132 99.5678 48.7934 99.5526 48.7698L97.5375 44.3797H96.3505V48.7287C96.3441 48.7642 96.3252 48.7963 96.2973 48.8191C96.2695 48.8419 96.2344 48.8541 96.1984 48.8533H94.3907C94.3569 48.8515 94.3248 48.8382 94.2996 48.8155C94.2744 48.7929 94.2577 48.7622 94.2523 48.7287V42.3441H97.9652C98.4202 42.3441 99.5942 42.2886 99.5942 41.0696C99.5942 39.8506 98.2941 39.7821 97.9652 39.7821H94.2542V37.8985C94.2597 37.865 94.2764 37.8344 94.3015 37.8117C94.3267 37.7891 94.3589 37.7757 94.3927 37.7739H97.9678C98.5892 37.7739 101.695 37.8013 101.695 41.0696C101.695 42.7595 100.77 43.6459 99.6657 44.0477C100.356 45.613 101.102 47.136 101.791 48.6733C101.802 48.6934 101.807 48.7163 101.806 48.7392C101.805 48.7622 101.797 48.7843 101.784 48.803C101.771 48.8218 101.753 48.8365 101.731 48.8453C101.71 48.8542 101.687 48.857 101.664 48.8533Z" fill="url(#paint7_linear)"/>
<path d="M113.495 48.8533H111.591C111.564 48.8539 111.538 48.8462 111.516 48.8312C111.493 48.8163 111.476 48.7948 111.467 48.7698L109.286 42.5932L107.132 48.7698C107.121 48.7964 107.101 48.8187 107.077 48.8337C107.052 48.8487 107.023 48.8555 106.994 48.8533H105.104C104.979 48.8533 104.924 48.7698 104.966 48.687L109.148 37.86C109.189 37.7491 109.382 37.7491 109.424 37.86L113.62 48.687C113.662 48.7698 113.593 48.8533 113.495 48.8533Z" fill="url(#paint8_linear)"/>
<path d="M116.823 44.6706V37.8985C116.829 37.863 116.848 37.831 116.876 37.8082C116.904 37.7853 116.939 37.7732 116.975 37.774H118.795C118.83 37.7733 118.863 37.7858 118.889 37.8089C118.914 37.832 118.93 37.8641 118.934 37.8985V44.6706H116.823ZM122.938 46.9279V48.7287C122.933 48.7653 122.915 48.7987 122.887 48.8219C122.858 48.8452 122.822 48.8565 122.786 48.8533H116.975C116.939 48.8541 116.904 48.8419 116.876 48.8191C116.848 48.7963 116.829 48.7643 116.823 48.7287V46.7897H122.786C122.804 46.7883 122.824 46.7907 122.841 46.7968C122.859 46.8029 122.876 46.8125 122.89 46.8252C122.904 46.8378 122.916 46.8532 122.924 46.8704C122.932 46.8876 122.937 46.9063 122.938 46.9253V46.9279Z" fill="url(#paint9_linear)"/>
<path d="M126.015 44.6706V37.8985C126.021 37.863 126.04 37.831 126.068 37.8082C126.096 37.7853 126.131 37.7732 126.167 37.774H127.987C128.022 37.7735 128.055 37.7861 128.08 37.8092C128.106 37.8323 128.122 37.8642 128.125 37.8985V44.6706H126.015ZM132.13 46.9279V48.7287C132.126 48.7653 132.107 48.7987 132.079 48.8219C132.051 48.8452 132.014 48.8565 131.978 48.8533H126.17C126.134 48.8541 126.099 48.8419 126.071 48.8191C126.044 48.7963 126.025 48.7643 126.018 48.7287V46.7897H131.981C132 46.7887 132.018 46.7915 132.036 46.7978C132.054 46.8041 132.07 46.8138 132.084 46.8264C132.097 46.839 132.109 46.8543 132.117 46.8712C132.124 46.8882 132.129 46.9066 132.13 46.9253V46.9279Z" fill="url(#paint10_linear)"/>
<path d="M140.453 48.8533H135.36C135.325 48.8541 135.289 48.8419 135.262 48.8191C135.234 48.7963 135.215 48.7642 135.208 48.7287V37.8985C135.215 37.863 135.234 37.831 135.262 37.8082C135.289 37.7853 135.325 37.7732 135.36 37.774H140.453V39.7822H137.32V42.2887H141.654C141.691 42.2854 141.727 42.2965 141.755 42.3198C141.784 42.3431 141.802 42.3766 141.806 42.4132V44.1742C141.8 44.2097 141.781 44.2418 141.753 44.2646C141.725 44.2874 141.69 44.2996 141.654 44.2988H137.32V46.7916H140.453V48.8533Z" fill="url(#paint11_linear)"/>
<path d="M155.098 37.9813L151.288 43.3133C152.102 44.4351 152.917 45.585 153.731 46.7342H151.164L150.018 45.1141L147.382 48.8116C147.368 48.8396 147.285 48.8533 147.258 48.8533H145.048C144.909 48.8533 144.853 48.7424 144.937 48.6452L148.719 43.3133C147.904 42.1915 147.104 41.0422 146.29 39.8924H148.857L150.017 41.5131L152.626 37.815C152.639 37.7876 152.722 37.7739 152.75 37.7739H154.96C155.113 37.7739 155.168 37.8842 155.098 37.9813Z" fill="url(#paint12_linear)"/>
<path d="M152.569 37.9L153.281 36.9405L152.458 36.2485H155.215L155.859 38.9931L154.903 38.1896L153.636 38.9931L152.569 37.9Z" fill="#C77E2A"/>
<defs>
<linearGradient id="paint0_linear" x1="22.4658" y1="51.5631" x2="66.9881" y2="35.4134" gradientUnits="userSpaceOnUse">
<stop stop-color="#FCD329"/>
<stop offset="0.5" stop-color="#C57B2A"/>
<stop offset="1" stop-color="#FCD534"/>
</linearGradient>
<linearGradient id="paint1_linear" x1="23.2355" y1="51.409" x2="65.9018" y2="35.9317" gradientUnits="userSpaceOnUse">
<stop stop-color="#F8CF23"/>
<stop offset="0.5" stop-color="#C57B2A"/>
<stop offset="1" stop-color="#F8CF23"/>
</linearGradient>
<linearGradient id="paint2_linear" x1="26.3572" y1="50.2491" x2="62.9845" y2="36.9632" gradientUnits="userSpaceOnUse">
<stop stop-color="#F8CF23"/>
<stop offset="0.5" stop-color="#C57B2A"/>
<stop offset="1" stop-color="#F8CF23"/>
</linearGradient>
<linearGradient id="paint3_linear" x1="48.1655" y1="67.8163" x2="59.4029" y2="63.7395" gradientUnits="userSpaceOnUse">
<stop stop-color="#F8CF23"/>
<stop offset="1" stop-color="#C77E2A"/>
</linearGradient>
<linearGradient id="paint4_linear" x1="7381.09" y1="5053.18" x2="9401.26" y2="5053.18" gradientUnits="userSpaceOnUse">
<stop stop-color="#F8CF23"/>
<stop offset="1" stop-color="#C77E2A"/>
</linearGradient>
<linearGradient id="paint5_linear" x1="9399.02" y1="16342.8" x2="18934.6" y2="16342.8" gradientUnits="userSpaceOnUse">
<stop stop-color="#F8CF23"/>
<stop offset="1" stop-color="#C77E2A"/>
</linearGradient>
<linearGradient id="paint6_linear" x1="10965.3" y1="16338.7" x2="22091.4" y2="16338.7" gradientUnits="userSpaceOnUse">
<stop stop-color="#F8CF23"/>
<stop offset="1" stop-color="#C77E2A"/>
</linearGradient>
<linearGradient id="paint7_linear" x1="9565.01" y1="16344.8" x2="19247.4" y2="16344.8" gradientUnits="userSpaceOnUse">
<stop stop-color="#F8CF23"/>
<stop offset="1" stop-color="#C77E2A"/>
</linearGradient>
<linearGradient id="paint8_linear" x1="10987.5" y1="16338.7" x2="22113.3" y2="16338.7" gradientUnits="userSpaceOnUse">
<stop stop-color="#F8CF23"/>
<stop offset="1" stop-color="#C77E2A"/>
</linearGradient>
<linearGradient id="paint9_linear" x1="7783.11" y1="16343.2" x2="15620.7" y2="16343.2" gradientUnits="userSpaceOnUse">
<stop stop-color="#F8CF23"/>
<stop offset="1" stop-color="#C77E2A"/>
</linearGradient>
<linearGradient id="paint10_linear" x1="7792.33" y1="16343.2" x2="15629.9" y2="16343.2" gradientUnits="userSpaceOnUse">
<stop stop-color="#F8CF23"/>
<stop offset="1" stop-color="#C77E2A"/>
</linearGradient>
<linearGradient id="paint11_linear" x1="8407.03" y1="16342.5" x2="16863.7" y2="16342.5" gradientUnits="userSpaceOnUse">
<stop stop-color="#F8CF23"/>
<stop offset="1" stop-color="#C77E2A"/>
</linearGradient>
<linearGradient id="paint12_linear" x1="12971.1" y1="16342.4" x2="26083.8" y2="16342.4" gradientUnits="userSpaceOnUse">
<stop stop-color="#F8CF23"/>
<stop offset="1" stop-color="#C77E2A"/>
</linearGradient>
</defs>
</svg>
