<svg width="54" height="54" viewBox="0 0 54 54" fill="none" xmlns="http://www.w3.org/2000/svg">
<path fill-rule="evenodd" clip-rule="evenodd" d="M53.3333 26.6667C53.3333 41.3943 41.3943 53.3333 26.6667 53.3333C11.9391 53.3333 0 41.3943 0 26.6667C0 11.9391 11.9391 0 26.6667 0C41.3943 0 53.3333 11.9391 53.3333 26.6667ZM19.6864 24.1838C20.0117 24.3235 20.306 24.5267 20.552 24.7814L24 28.2294L32.7813 19.4481C33.0273 19.1934 33.3216 18.9902 33.6469 18.8505C33.9723 18.7107 34.3222 18.6371 34.6763 18.6341C35.0303 18.631 35.3815 18.6985 35.7092 18.8325C36.0369 18.9666 36.3347 19.1646 36.585 19.415C36.8354 19.6654 37.0334 19.9631 37.1675 20.2908C37.3016 20.6186 37.3691 20.9697 37.366 21.3238C37.3629 21.6779 37.2894 22.0278 37.1496 22.3531C37.0098 22.6785 36.8067 22.9727 36.552 23.2187L25.8853 33.8854C25.3853 34.3853 24.7071 34.6662 24 34.6662C23.2929 34.6662 22.6147 34.3853 22.1147 33.8854L16.7813 28.5521C16.5266 28.3061 16.3235 28.0118 16.1837 27.6865C16.044 27.3611 15.9704 27.0112 15.9673 26.6571C15.9642 26.303 16.0317 25.9519 16.1658 25.6242C16.2999 25.2965 16.4979 24.9987 16.7483 24.7483C16.9987 24.498 17.2964 24.2999 17.6241 24.1659C17.9518 24.0318 18.303 23.9643 18.6571 23.9674C19.0111 23.9705 19.3611 24.044 19.6864 24.1838Z" fill="#00875A"/>
</svg>
